<?xml version="1.0" standalone="no"?>
<!DOCTYPE svg PUBLIC "-//W3C//DTD SVG 20010904//EN"
 "http://www.w3.org/TR/2001/REC-SVG-20010904/DTD/svg10.dtd">
<svg version="1.0" xmlns="http://www.w3.org/2000/svg"
 width="456.000000pt" height="80.000000pt" viewBox="0 0 456.000000 80.000000"
 preserveAspectRatio="xMidYMid meet">

<g transform="translate(0.000000,80.000000) scale(0.100000,-0.100000)"
fill="#000000" stroke="none">
<path d="M389 706 c-69 -28 -112 -58 -139 -96 -40 -56 -35 -121 10 -135 30 -9
25 -19 -23 -42 -91 -44 -152 -121 -163 -204 -15 -122 130 -178 272 -106 86 44
184 163 184 224 0 13 -10 33 -21 44 -46 46 -170 -3 -214 -84 -16 -28 -18 -41
-9 -54 17 -28 49 -27 80 2 l29 26 -33 -6 c-24 -5 -33 -3 -38 10 -10 26 13 64
50 81 103 50 135 -68 44 -163 -43 -46 -122 -83 -176 -83 -87 0 -127 82 -87
178 32 75 130 151 218 167 52 10 46 24 -7 18 -79 -9 -107 46 -66 128 23 44 71
79 110 79 14 0 55 -8 92 -17 58 -15 74 -15 115 -5 27 7 54 19 62 27 13 12 10
14 -20 9 -20 -4 -58 1 -89 10 -72 22 -115 20 -181 -8z"/>
<path d="M963 700 c-153 -69 -250 -320 -123 -320 52 0 132 84 117 123 -3 7 -9
0 -15 -14 -13 -32 -48 -59 -77 -59 -76 0 -50 147 38 211 121 88 214 -34 161
-212 -37 -123 -99 -214 -178 -259 -91 -53 -168 -32 -201 54 -44 115 17 289
141 405 36 34 64 64 61 67 -9 9 -156 -137 -192 -191 -102 -154 -116 -316 -35
-390 32 -29 130 -27 190 4 76 40 183 157 229 253 64 133 76 219 41 288 -33 64
-79 76 -157 40z"/>
<path d="M1945 350 c-16 -16 -24 -30 -19 -30 6 0 23 14 39 30 16 17 24 30 19
30 -6 0 -23 -13 -39 -30z"/>
<path d="M2201 366 c-9 -10 -9 -16 -1 -21 13 -8 42 14 34 26 -8 13 -20 11 -33
-5z"/>
<path d="M3748 240 c-34 -102 -43 -140 -33 -140 8 0 17 5 21 11 4 8 9 8 17 0
17 -17 58 -13 93 8 51 31 83 128 52 159 -15 15 -53 15 -80 1 -28 -15 -30 -8
-13 41 18 52 19 60 2 60 -7 0 -32 -58 -59 -140z m126 -18 c-1 -74 -86 -135
-113 -83 -25 45 37 135 88 129 24 -3 26 -7 25 -46z"/>
<path d="M4461 366 c-8 -10 -9 -16 -1 -21 13 -8 30 3 30 21 0 18 -14 18 -29 0z"/>
<path d="M1362 238 c-23 -68 -42 -126 -42 -130 0 -5 32 -8 70 -8 56 0 70 3 70
15 0 11 -12 15 -50 15 -56 0 -54 -2 -39 51 12 37 13 38 62 41 66 4 77 28 13
28 -50 0 -51 2 -35 49 10 30 13 31 65 31 41 0 54 4 54 15 0 12 -14 15 -63 15
l-63 0 -42 -122z"/>
<path d="M2711 239 c-22 -68 -41 -127 -41 -132 0 -17 107 -6 150 16 84 42 134
155 92 207 -17 21 -30 25 -90 28 l-70 4 -41 -123z m160 81 c13 -8 19 -21 19
-48 0 -75 -69 -142 -146 -142 l-41 0 35 100 34 100 40 0 c22 0 48 -5 59 -10z"/>
<path d="M3555 346 c-59 -27 -115 -110 -115 -171 0 -14 11 -37 26 -52 22 -22
32 -25 75 -21 58 6 92 28 133 86 34 49 42 121 15 148 -23 22 -97 28 -134 10z
m96 -26 c43 -23 13 -133 -46 -170 -75 -46 -147 -7 -125 68 24 86 108 135 171
102z"/>
<path d="M1756 324 c-9 -8 -16 -20 -16 -25 0 -5 -9 -9 -20 -9 -11 0 -20 -4
-20 -10 0 -5 7 -10 14 -10 12 0 12 -10 -5 -57 -26 -77 -23 -107 14 -111 15 -2
27 1 27 7 0 6 -7 11 -15 11 -20 0 -18 32 4 95 15 41 22 51 44 53 32 4 36 22 6
22 -18 0 -20 4 -15 25 7 29 3 31 -18 9z"/>
<path d="M2076 324 c-9 -8 -16 -20 -16 -25 0 -5 -9 -9 -20 -9 -11 0 -20 -4
-20 -10 0 -5 7 -10 14 -10 12 0 12 -10 -5 -57 -26 -77 -23 -107 14 -111 15 -2
27 1 27 7 0 6 -7 11 -15 11 -20 0 -18 32 4 95 15 41 22 51 44 53 32 4 36 22 6
22 -18 0 -20 4 -15 25 7 29 3 31 -18 9z"/>
<path d="M4336 324 c-9 -8 -16 -20 -16 -25 0 -5 -9 -9 -20 -9 -11 0 -20 -4
-20 -10 0 -5 7 -10 14 -10 12 0 12 -10 -5 -57 -26 -77 -23 -107 14 -111 15 -2
27 1 27 7 0 6 -7 11 -15 11 -20 0 -18 32 4 95 15 41 22 51 44 53 32 4 36 22 6
22 -18 0 -20 4 -15 25 7 29 3 31 -18 9z"/>
<path d="M1559 261 c-16 -16 -29 -34 -29 -41 0 -6 16 -20 35 -31 37 -22 43
-37 23 -57 -15 -15 -60 -16 -75 -1 -7 7 -12 6 -16 -5 -13 -34 78 -32 116 1 29
27 21 58 -19 82 -36 21 -36 22 -18 42 13 15 28 20 51 17 22 -3 33 0 33 9 0 8
-13 13 -36 13 -26 0 -43 -8 -65 -29z"/>
<path d="M1884 280 c-32 -13 -72 -67 -80 -106 -11 -59 32 -87 104 -68 36 10
25 21 -19 20 -45 -1 -67 18 -56 48 5 12 20 16 71 16 49 0 65 4 70 16 23 61
-24 101 -90 74z m64 -42 c3 -27 2 -28 -47 -28 -28 0 -51 3 -51 7 0 4 10 17 22
30 31 33 72 28 76 -9z"/>
<path d="M2143 195 c-41 -124 -19 -131 26 -9 35 97 36 104 18 104 -7 0 -26
-41 -44 -95z"/>
<path d="M2285 272 c-36 -23 -63 -61 -71 -101 -11 -56 63 -93 112 -56 17 14
16 14 -23 9 -38 -6 -43 -4 -54 19 -9 20 -8 32 6 62 22 45 55 68 94 63 17 -1
32 2 33 7 5 19 -66 16 -97 -3z"/>
<path d="M2445 276 c-19 -14 -17 -15 25 -13 39 2 45 -1 48 -19 3 -18 -3 -23
-35 -28 -63 -11 -91 -26 -104 -58 -10 -25 -9 -32 4 -46 14 -13 23 -14 57 -5
22 5 40 6 40 2 0 -5 6 -9 13 -9 19 0 64 147 51 168 -14 22 -73 27 -99 8z m58
-96 c-11 -41 -81 -77 -98 -50 -10 16 22 58 47 63 50 9 56 8 51 -13z"/>
<path d="M2953 194 c-26 -79 -29 -95 -16 -92 9 2 24 25 33 54 25 71 41 94 74
102 16 4 31 13 34 20 6 18 -29 15 -50 -5 -17 -15 -18 -15 -18 0 0 10 -6 17
-13 17 -7 0 -26 -41 -44 -96z"/>
<path d="M3124 276 c-17 -14 -15 -15 26 -13 39 2 45 -1 48 -19 3 -18 -3 -23
-35 -28 -63 -11 -91 -26 -104 -58 -10 -25 -9 -32 4 -46 14 -13 23 -14 57 -5
22 5 40 6 40 2 0 -5 6 -9 13 -9 13 0 57 120 57 157 0 34 -68 46 -106 19z m59
-96 c-7 -26 -50 -60 -75 -60 -45 0 -23 64 26 73 47 9 54 8 49 -13z"/>
<path d="M4014 280 c-32 -13 -72 -67 -80 -106 -11 -59 32 -87 104 -68 36 10
25 21 -19 20 -45 -1 -67 18 -56 48 5 12 20 16 71 16 68 0 76 6 76 55 0 38 -47
55 -96 35z m64 -42 c3 -27 2 -28 -47 -28 -28 0 -51 3 -51 7 0 4 10 17 22 30
31 33 72 28 76 -9z"/>
<path d="M4143 195 c-38 -115 -22 -132 23 -22 26 63 33 73 64 83 19 6 36 16
38 23 6 17 -29 13 -50 -6 -17 -15 -18 -15 -18 0 0 10 -6 17 -13 17 -7 0 -26
-41 -44 -95z"/>
<path d="M4403 195 c-23 -70 -28 -95 -18 -95 7 0 21 21 30 48 10 26 23 64 31
85 17 46 18 57 1 57 -7 0 -26 -41 -44 -95z"/>
<path d="M3243 125 c-3 -9 -3 -19 1 -22 7 -7 36 16 36 28 0 15 -30 10 -37 -6z"/>
</g>
</svg>
